<?xml version="1.0" encoding="utf-8"?>
<svg width="60px" height="20px" viewBox="0 0 60 20" xmlns="http://www.w3.org/2000/svg">
  <defs>
    <style id="bx-google-fonts">@import url(https://fonts.googleapis.com/css?family=Roboto:100,100italic,300,300italic,400,400italic,500,500italic,700,700italic,900,900italic);</style>
  </defs>
  <text x="92.55" y="7.141" style="font-size: 36; font-family: Roboto; white-space: pre;"> </text>
  <path d="M 0.695 1.064 L 0.695 2.282 L 12.076 2.282 L 12.076 1.064 L 0.695 1.064 Z M 13.69 1.064 L 13.69 2.282 L 29.908 2.282 C 29.908 2.282 28.251 1.064 26.056 1.064 L 13.69 1.064 Z M 33.09 1.064 L 33.09 2.282 L 42.902 2.282 L 42.319 1.064 L 33.09 1.064 Z M 49.937 1.064 L 49.355 2.282 L 59.077 2.282 L 59.077 1.064 L 49.937 1.064 Z M 0.695 3.431 L 0.695 4.647 L 12.076 4.647 L 12.076 3.431 L 0.695 3.431 Z M 13.69 3.433 L 13.69 4.647 L 31.79 4.647 C 31.79 4.647 31.579 3.711 31.21 3.433 L 13.69 3.433 Z M 33.09 3.433 L 33.09 4.647 L 43.977 4.647 L 43.437 3.433 L 33.09 3.433 Z M 48.772 3.433 L 48.233 4.647 L 59.077 4.647 L 59.077 3.433 L 48.772 3.433 Z M 3.966 5.797 L 3.966 7.015 L 8.894 7.015 L 8.894 5.797 L 3.966 5.797 Z M 16.96 5.797 L 16.96 7.015 L 21.889 7.015 L 21.889 5.797 L 16.96 5.797 Z M 26.683 5.797 L 26.683 7.015 L 31.612 7.015 C 31.612 7.015 31.925 6.371 31.925 5.797 L 26.683 5.797 Z M 36.36 5.797 L 36.36 7.015 L 45.099 7.015 L 44.516 5.797 L 36.36 5.797 Z M 47.697 5.797 L 47.114 7.015 L 55.895 7.015 L 55.895 5.797 L 47.697 5.797 Z M 3.966 8.165 L 3.966 9.382 L 8.894 9.382 L 8.894 8.165 L 3.966 8.165 Z M 16.96 8.165 L 16.96 9.382 L 29.549 9.382 C 29.549 9.382 30.603 8.758 30.938 8.165 L 16.96 8.165 Z M 36.36 8.165 L 36.36 9.382 L 41.289 9.382 L 41.289 8.704 L 41.602 9.382 L 50.631 9.382 L 50.966 8.704 L 50.966 9.382 L 55.895 9.382 L 55.895 8.165 L 46.643 8.165 L 46.152 9.195 L 45.657 8.165 L 36.36 8.165 Z M 3.966 10.531 L 3.966 11.747 L 8.894 11.747 L 8.894 10.531 L 3.966 10.531 Z M 16.96 10.531 L 16.96 11.747 L 30.938 11.747 C 30.603 11.157 29.549 10.531 29.549 10.531 L 16.96 10.531 Z M 36.36 10.531 L 36.36 11.747 L 41.289 11.747 L 41.289 10.531 L 36.36 10.531 Z M 42.185 10.531 L 42.78 11.747 L 49.55 11.747 L 50.117 10.531 L 42.185 10.531 Z M 50.966 10.531 L 50.966 11.747 L 55.895 11.747 L 55.895 10.531 L 50.966 10.531 Z M 3.966 12.897 L 3.966 14.114 L 8.894 14.114 L 8.894 12.897 L 3.966 12.897 Z M 16.96 12.897 L 16.96 14.114 L 21.889 14.114 L 21.889 12.897 L 16.96 12.897 Z M 26.683 12.897 L 26.683 14.114 L 31.925 14.114 C 31.925 13.54 31.612 12.897 31.612 12.897 L 26.683 12.897 Z M 36.36 12.897 L 36.36 14.114 L 41.289 14.114 L 41.289 12.897 L 36.36 12.897 Z M 43.304 12.897 L 43.881 14.114 L 48.42 14.114 L 49.002 12.897 L 43.304 12.897 Z M 50.966 12.897 L 50.966 14.114 L 55.895 14.114 L 55.895 12.897 L 50.966 12.897 Z M 0.784 15.264 L 0.784 16.482 L 12.166 16.482 L 12.166 15.264 L 0.784 15.264 Z M 13.69 15.264 L 13.69 16.482 L 31.21 16.482 C 31.579 16.203 31.79 15.264 31.79 15.264 L 13.69 15.264 Z M 33.179 15.264 L 33.179 16.482 L 41.289 16.482 L 41.289 15.264 L 33.179 15.264 Z M 44.426 15.264 L 45.019 16.482 L 47.327 16.482 L 47.885 15.264 L 44.426 15.264 Z M 50.966 15.264 L 50.966 16.482 L 59.166 16.482 L 59.166 15.264 L 50.966 15.264 Z M 0.784 17.633 L 0.784 18.849 L 12.166 18.849 L 12.166 17.633 L 0.784 17.633 Z M 13.69 17.633 L 13.69 18.847 L 26.056 18.847 C 28.251 18.847 29.908 17.633 29.908 17.633 L 13.69 17.633 Z M 33.179 17.633 L 33.179 18.849 L 41.289 18.849 L 41.289 17.633 L 33.179 17.633 Z M 45.551 17.633 L 46.122 18.845 L 46.22 18.847 L 46.8 17.633 L 45.551 17.633 Z M 50.966 17.633 L 50.966 18.849 L 59.166 18.849 L 59.166 17.633 L 50.966 17.633 Z" style="fill: rgb(97, 107, 117);"/>
</svg>